<svg width="122" height="36" viewBox="0 0 122 36" fill="none" xmlns="http://www.w3.org/2000/svg">
<g clip-path="url(#clip0_184_4907)">
<path d="M17.6734 0.0126221C17.2811 0.0166614 16.9115 0.197422 16.6583 0.511986L0 21.151L1.52039 22.3783L17.6939 2.33626L34.5038 22.3915L35.9999 21.1369L18.697 0.493388C18.4385 0.183621 18.0623 0.0113598 17.6734 0.0126221Z" fill="#040937"/>
<path d="M17.9763 21.8544C18.0765 21.8206 18.2037 21.6561 18.2102 21.5518C18.3573 19.0348 16.2789 15.6795 15.5305 14.5592C14.9279 14.7994 14.3416 15.1876 13.8004 15.7792C13.8004 15.7792 12.7194 16.5046 12.3359 20.0292C14.3577 22.6475 16.8699 22.2194 17.9763 21.8544Z" fill="#FF5B2E"/>
<path d="M25.9934 17.3868L22.6812 16.5784C22.6812 16.5784 22.5868 15.7792 21.6475 15.4509C20.9629 15.211 18.6041 13.8552 16.2833 14.3341C17.1607 15.6697 19.1127 18.9618 18.9583 21.5951C18.9354 22.0091 18.6062 22.4368 18.2105 22.5676C17.8302 22.6942 17.1475 22.8694 16.3179 22.8694C15.1158 22.8694 13.606 22.4997 12.2459 21.0784C12.2192 21.5301 12.204 22.0186 12.2013 22.5472C12.186 25.2735 8.72296 27.8584 8.72296 27.8584L8.26172 28.8143C9.20314 30.8526 10.6789 32.5949 12.5111 33.8593C12.5942 32.5572 12.9207 31.5371 13.2989 30.7706C14.0151 29.3147 15.0195 28.5066 15.5321 28.1647C15.6424 25.1598 16.6177 24.2816 17.4314 24.0808C17.6813 24.0188 17.9448 24.0722 18.1521 24.2278C18.3879 24.4038 18.5397 24.6944 18.5551 25.0064C18.5969 25.8141 19.0743 26.3811 19.3007 26.6063C19.6677 26.6405 20.0182 26.6986 20.348 26.7785L20.3783 26.4952L20.6305 24.047C20.6732 23.6338 21.0446 23.2855 21.4557 23.2266C23.0167 22.9992 26.4947 22.0746 26.7208 18.317C26.7468 17.9026 26.3968 17.4858 25.9934 17.3868ZM20.833 18.2596C20.5993 18.2596 20.4095 18.0707 20.4095 17.8368C20.4095 17.6028 20.5993 17.4139 20.833 17.4139C21.0672 17.4139 21.256 17.6028 21.256 17.8368C21.2552 18.0703 21.0668 18.2596 20.833 18.2596Z" fill="#FF5B2E"/>
<path d="M22.6852 29.4476C22.56 28.3823 21.0563 27.5045 19.1132 27.3798C19.1132 27.3798 18.0814 26.5867 18.0122 25.2176C18.0008 25.0103 17.8459 24.8043 17.6447 24.854C17.1255 24.9817 16.2439 25.6483 16.2 28.6926C16.2 28.6926 13.3759 30.1173 13.1719 34.2247C14.9821 35.3123 17.0916 35.9503 19.3432 35.9874L19.3179 35.399C19.3086 35.1917 19.4589 34.9644 19.6529 34.8918L22.0584 33.9897C22.0584 33.9897 23.1864 34.053 23.6557 33.2061C23.8932 32.7792 24.1137 32.4808 24.2761 32.2886C24.409 32.1305 24.4069 31.9045 24.2582 31.76C23.7667 31.2856 22.7788 30.2437 22.6852 29.4476ZM21.2583 30.4788C21.025 30.4788 20.8357 30.2903 20.8357 30.0562C20.8357 29.8216 21.025 29.6328 21.2583 29.6328C21.4924 29.6328 21.6818 29.8216 21.6818 30.0562C21.6819 30.2902 21.4925 30.4788 21.2583 30.4788Z" fill="#FF5B2E"/>
</g>
<path d="M43.7969 11.7227H48.3574C50.0957 11.7227 51.4141 12.097 52.3125 12.8457C53.2109 13.5944 53.6602 14.724 53.6602 16.2344C53.6602 17.7383 53.1784 18.8971 52.2148 19.7109C51.2513 20.5182 49.8874 20.9219 48.123 20.9219H46.8242V26H43.7969V11.7227ZM46.8242 14.2031V18.4414H47.8203C49.6758 18.4414 50.6035 17.7253 50.6035 16.293C50.6035 15.5768 50.4082 15.0495 50.0176 14.7109C49.6335 14.3724 49.028 14.2031 48.2012 14.2031H46.8242ZM64.9004 25.4238C63.8978 25.9382 62.6185 26.1953 61.0625 26.1953C59.3047 26.1953 57.931 25.7103 56.9414 24.7402C55.9518 23.7702 55.457 22.3835 55.457 20.5801C55.457 18.7767 55.9128 17.3802 56.8242 16.3906C57.7357 15.3815 58.9824 14.877 60.5645 14.877C62.1465 14.877 63.3639 15.3164 64.2168 16.1953C65.0827 17.0677 65.5156 18.2819 65.5156 19.8379V21.2832H58.4746C58.5072 22.1361 58.7578 22.8001 59.2266 23.2754C59.7018 23.7441 60.3594 23.9785 61.1992 23.9785C62.4362 23.9785 63.6699 23.6921 64.9004 23.1191V25.4238ZM62.7227 19.3008C62.7096 18.5716 62.5176 18.0052 62.1465 17.6016C61.7819 17.1979 61.2839 16.9961 60.6523 16.9961C60.0208 16.9961 59.5228 17.1947 59.1582 17.5918C58.8001 17.9889 58.5951 18.5586 58.543 19.3008H62.7227ZM71.2383 15.082H74.2949V17.3184H71.2383V22.582C71.2383 22.9922 71.3522 23.3014 71.5801 23.5098C71.8145 23.7181 72.1595 23.8223 72.6152 23.8223C73.071 23.8223 73.6699 23.7083 74.4121 23.4805V25.6973C73.6699 26.0293 72.7324 26.1953 71.5996 26.1953C70.4733 26.1953 69.6335 25.8991 69.0801 25.3066C68.5332 24.7077 68.2598 23.7995 68.2598 22.582V17.3184H66.834V16.0586L68.4746 15.0625L69.334 12.7578H71.2383V15.082ZM89.5293 26H85.6816L79.4707 15.1992H79.3828C79.5065 17.0547 79.5684 18.4154 79.5684 19.2812V26H76.8633V11.7227H80.6816L86.8828 22.416H86.9512C86.8535 20.5605 86.8047 19.2487 86.8047 18.4805V11.7227H89.5293V26ZM101.678 25.4238C100.675 25.9382 99.3958 26.1953 97.8398 26.1953C96.082 26.1953 94.7083 25.7103 93.7188 24.7402C92.7292 23.7702 92.2344 22.3835 92.2344 20.5801C92.2344 18.7767 92.6901 17.3802 93.6016 16.3906C94.513 15.3815 95.7598 14.877 97.3418 14.877C98.9238 14.877 100.141 15.3164 100.994 16.1953C101.86 17.0677 102.293 18.2819 102.293 19.8379V21.2832H95.252C95.2845 22.1361 95.5352 22.8001 96.0039 23.2754C96.4792 23.7441 97.1367 23.9785 97.9766 23.9785C99.2135 23.9785 100.447 23.6921 101.678 23.1191V25.4238ZM99.5 19.3008C99.487 18.5716 99.2949 18.0052 98.9238 17.6016C98.5592 17.1979 98.0612 16.9961 97.4297 16.9961C96.7982 16.9961 96.3001 17.1947 95.9355 17.5918C95.5775 17.9889 95.3724 18.5586 95.3203 19.3008H99.5ZM107.771 24.0176C108.852 24.0176 109.393 23.7051 109.393 23.0801C109.393 22.7611 109.249 22.5072 108.963 22.3184C108.683 22.1296 108.038 21.8105 107.029 21.3613C106.189 21.0098 105.571 20.6842 105.174 20.3848C104.783 20.0853 104.497 19.7435 104.314 19.3594C104.139 18.9688 104.051 18.4902 104.051 17.9238C104.051 16.9538 104.425 16.2051 105.174 15.6777C105.929 15.1439 106.984 14.877 108.338 14.877C109.692 14.877 110.984 15.1634 112.215 15.7363L111.316 17.8848C110.685 17.6178 110.141 17.4193 109.686 17.2891C109.236 17.1523 108.784 17.084 108.328 17.084C107.449 17.084 107.01 17.3216 107.01 17.7969C107.01 18.0638 107.153 18.2982 107.439 18.5C107.726 18.6953 108.318 18.972 109.217 19.3301C110.122 19.6882 110.773 20.0202 111.17 20.3262C111.945 20.9121 112.332 21.7454 112.332 22.8262C112.332 23.9069 111.941 24.7402 111.16 25.3262C110.379 25.9056 109.249 26.1953 107.771 26.1953C106.294 26.1953 105.057 25.9837 104.061 25.5605V23.0996C104.62 23.36 105.245 23.5781 105.936 23.7539C106.632 23.9297 107.244 24.0176 107.771 24.0176ZM117.957 15.082H121.014V17.3184H117.957V22.582C117.957 22.9922 118.071 23.3014 118.299 23.5098C118.533 23.7181 118.878 23.8223 119.334 23.8223C119.79 23.8223 120.389 23.7083 121.131 23.4805V25.6973C120.389 26.0293 119.451 26.1953 118.318 26.1953C117.192 26.1953 116.352 25.8991 115.799 25.3066C115.252 24.7077 114.979 23.7995 114.979 22.582V17.3184H113.553V16.0586L115.193 15.0625L116.053 12.7578H117.957V15.082Z" fill="#040937"/>
<defs>
<clipPath id="clip0_184_4907">
<rect width="36" height="36" fill="white"/>
</clipPath>
</defs>
</svg>
