<svg width="99" height="27" viewBox="0 0 99 27" fill="none" xmlns="http://www.w3.org/2000/svg">
<path d="M2.15625 3.86719H7.62891C9.71484 3.86719 11.2969 4.31641 12.375 5.21484C13.4531 6.11328 13.9922 7.46875 13.9922 9.28125C13.9922 11.0859 13.4141 12.4766 12.2578 13.4531C11.1016 14.4219 9.46484 14.9062 7.34766 14.9062H5.78906V21H2.15625V3.86719ZM5.78906 6.84375V11.9297H6.98438C9.21094 11.9297 10.3242 11.0703 10.3242 9.35156C10.3242 8.49219 10.0898 7.85938 9.62109 7.45312C9.16016 7.04687 8.43359 6.84375 7.44141 6.84375H5.78906ZM27.4805 20.3086C26.2773 20.9258 24.7422 21.2344 22.875 21.2344C20.7656 21.2344 19.1172 20.6523 17.9297 19.4883C16.7422 18.3242 16.1484 16.6602 16.1484 14.4961C16.1484 12.332 16.6953 10.6562 17.7891 9.46875C18.8828 8.25781 20.3789 7.65234 22.2773 7.65234C24.1758 7.65234 25.6367 8.17969 26.6602 9.23438C27.6992 10.2812 28.2188 11.7383 28.2188 13.6055V15.3398H19.7695C19.8086 16.3633 20.1094 17.1602 20.6719 17.7305C21.2422 18.293 22.0312 18.5742 23.0391 18.5742C24.5234 18.5742 26.0039 18.2305 27.4805 17.543V20.3086ZM24.8672 12.9609C24.8516 12.0859 24.6211 11.4062 24.1758 10.9219C23.7383 10.4375 23.1406 10.1953 22.3828 10.1953C21.625 10.1953 21.0273 10.4336 20.5898 10.9102C20.1602 11.3867 19.9141 12.0703 19.8516 12.9609H24.8672ZM35.0859 7.89844H38.7539V10.582H35.0859V16.8984C35.0859 17.3906 35.2227 17.7617 35.4961 18.0117C35.7773 18.2617 36.1914 18.3867 36.7383 18.3867C37.2852 18.3867 38.0039 18.25 38.8945 17.9766V20.6367C38.0039 21.0352 36.8789 21.2344 35.5195 21.2344C34.168 21.2344 33.1602 20.8789 32.4961 20.168C31.8398 19.4492 31.5117 18.3594 31.5117 16.8984V10.582H29.8008V9.07031L31.7695 7.875L32.8008 5.10938H35.0859V7.89844ZM57.0352 21H52.418L44.9648 8.03906H44.8594C45.0078 10.2656 45.082 11.8984 45.082 12.9375V21H41.8359V3.86719H46.418L53.8594 16.6992H53.9414C53.8242 14.4727 53.7656 12.8984 53.7656 11.9766V3.86719H57.0352V21ZM71.6133 20.3086C70.4102 20.9258 68.875 21.2344 67.0078 21.2344C64.8984 21.2344 63.25 20.6523 62.0625 19.4883C60.875 18.3242 60.2812 16.6602 60.2812 14.4961C60.2812 12.332 60.8281 10.6562 61.9219 9.46875C63.0156 8.25781 64.5117 7.65234 66.4102 7.65234C68.3086 7.65234 69.7695 8.17969 70.793 9.23438C71.832 10.2812 72.3516 11.7383 72.3516 13.6055V15.3398H63.9023C63.9414 16.3633 64.2422 17.1602 64.8047 17.7305C65.375 18.293 66.1641 18.5742 67.1719 18.5742C68.6562 18.5742 70.1367 18.2305 71.6133 17.543V20.3086ZM69 12.9609C68.9844 12.0859 68.7539 11.4062 68.3086 10.9219C67.8711 10.4375 67.2734 10.1953 66.5156 10.1953C65.7578 10.1953 65.1602 10.4336 64.7227 10.9102C64.293 11.3867 64.0469 12.0703 63.9844 12.9609H69ZM78.9258 18.6211C80.2227 18.6211 80.8711 18.2461 80.8711 17.4961C80.8711 17.1133 80.6992 16.8086 80.3555 16.582C80.0195 16.3555 79.2461 15.9727 78.0352 15.4336C77.0273 15.0117 76.2852 14.6211 75.8086 14.2617C75.3398 13.9023 74.9961 13.4922 74.7773 13.0312C74.5664 12.5625 74.4609 11.9883 74.4609 11.3086C74.4609 10.1445 74.9102 9.24609 75.8086 8.61328C76.7148 7.97266 77.9805 7.65234 79.6055 7.65234C81.2305 7.65234 82.7812 7.99609 84.2578 8.68359L83.1797 11.2617C82.4219 10.9414 81.7695 10.7031 81.2227 10.5469C80.6836 10.3828 80.1406 10.3008 79.5938 10.3008C78.5391 10.3008 78.0117 10.5859 78.0117 11.1562C78.0117 11.4766 78.1836 11.7578 78.5273 12C78.8711 12.2344 79.582 12.5664 80.6602 12.9961C81.7461 13.4258 82.5273 13.8242 83.0039 14.1914C83.9336 14.8945 84.3984 15.8945 84.3984 17.1914C84.3984 18.4883 83.9297 19.4883 82.9922 20.1914C82.0547 20.8867 80.6992 21.2344 78.9258 21.2344C77.1523 21.2344 75.668 20.9805 74.4727 20.4727V17.5195C75.1445 17.832 75.8945 18.0938 76.7227 18.3047C77.5586 18.5156 78.293 18.6211 78.9258 18.6211ZM91.1484 7.89844H94.8164V10.582H91.1484V16.8984C91.1484 17.3906 91.2852 17.7617 91.5586 18.0117C91.8398 18.2617 92.2539 18.3867 92.8008 18.3867C93.3477 18.3867 94.0664 18.25 94.957 17.9766V20.6367C94.0664 21.0352 92.9414 21.2344 91.582 21.2344C90.2305 21.2344 89.2227 20.8789 88.5586 20.168C87.9023 19.4492 87.5742 18.3594 87.5742 16.8984V10.582H85.8633V9.07031L87.832 7.875L88.8633 5.10938H91.1484V7.89844Z" fill="#040937"/>
</svg>
