<svg width="109" height="21" viewBox="0 0 109 21" fill="none" xmlns="http://www.w3.org/2000/svg">
<path d="M0.515625 0.0117188H6.90039C9.33398 0.0117188 11.1797 0.535807 12.4375 1.58398C13.6953 2.63216 14.3242 4.21354 14.3242 6.32812C14.3242 8.43359 13.6497 10.056 12.3008 11.1953C10.9518 12.3255 9.04232 12.8906 6.57227 12.8906H4.75391V20H0.515625V0.0117188ZM4.75391 3.48438V9.41797H6.14844C8.74609 9.41797 10.0449 8.41536 10.0449 6.41016C10.0449 5.40755 9.77148 4.66927 9.22461 4.19531C8.68685 3.72135 7.83919 3.48438 6.68164 3.48438H4.75391ZM30.0605 19.1934C28.6569 19.9134 26.8659 20.2734 24.6875 20.2734C22.2266 20.2734 20.3034 19.5944 18.918 18.2363C17.5326 16.8783 16.8398 14.9368 16.8398 12.4121C16.8398 9.88737 17.4779 7.93229 18.7539 6.54688C20.0299 5.13411 21.7754 4.42773 23.9902 4.42773C26.2051 4.42773 27.9095 5.04297 29.1035 6.27344C30.3158 7.49479 30.9219 9.19466 30.9219 11.373V13.3965H21.0645C21.11 14.5905 21.4609 15.5202 22.1172 16.1855C22.7826 16.8418 23.7031 17.1699 24.8789 17.1699C26.6107 17.1699 28.3379 16.7689 30.0605 15.9668V19.1934ZM27.0117 10.6211C26.9935 9.60026 26.7246 8.80729 26.2051 8.24219C25.6947 7.67708 24.9974 7.39453 24.1133 7.39453C23.2292 7.39453 22.5319 7.67253 22.0215 8.22852C21.5202 8.78451 21.2331 9.58203 21.1602 10.6211H27.0117ZM38.9336 4.71484H43.2129V7.8457H38.9336V15.2148C38.9336 15.7891 39.0931 16.222 39.4121 16.5137C39.7402 16.8053 40.2233 16.9512 40.8613 16.9512C41.4993 16.9512 42.3379 16.7917 43.377 16.4727V19.5762C42.3379 20.041 41.0254 20.2734 39.4395 20.2734C37.8626 20.2734 36.6868 19.8587 35.9121 19.0293C35.1465 18.1908 34.7637 16.9193 34.7637 15.2148V7.8457H32.7676V6.08203L35.0645 4.6875L36.2676 1.46094H38.9336V4.71484ZM64.541 20H59.1543L50.459 4.87891H50.3359C50.5091 7.47656 50.5957 9.38151 50.5957 10.5938V20H46.8086V0.0117188H52.1543L60.8359 14.9824H60.9316C60.7949 12.3848 60.7266 10.5482 60.7266 9.47266V0.0117188H64.541V20ZM81.5488 19.1934C80.1452 19.9134 78.3542 20.2734 76.1758 20.2734C73.7148 20.2734 71.7917 19.5944 70.4062 18.2363C69.0208 16.8783 68.3281 14.9368 68.3281 12.4121C68.3281 9.88737 68.9661 7.93229 70.2422 6.54688C71.5182 5.13411 73.2637 4.42773 75.4785 4.42773C77.6934 4.42773 79.3978 5.04297 80.5918 6.27344C81.804 7.49479 82.4102 9.19466 82.4102 11.373V13.3965H72.5527C72.5983 14.5905 72.9492 15.5202 73.6055 16.1855C74.2708 16.8418 75.1914 17.1699 76.3672 17.1699C78.099 17.1699 79.8262 16.7689 81.5488 15.9668V19.1934ZM78.5 10.6211C78.4818 9.60026 78.2129 8.80729 77.6934 8.24219C77.1829 7.67708 76.4857 7.39453 75.6016 7.39453C74.7174 7.39453 74.0202 7.67253 73.5098 8.22852C73.0085 8.78451 72.7214 9.58203 72.6484 10.6211H78.5ZM90.0801 17.2246C91.5931 17.2246 92.3496 16.7871 92.3496 15.9121C92.3496 15.4655 92.1491 15.11 91.748 14.8457C91.3561 14.5814 90.4538 14.1348 89.041 13.5059C87.8652 13.0137 86.9993 12.5579 86.4434 12.1387C85.8965 11.7194 85.4954 11.2409 85.2402 10.7031C84.9941 10.1562 84.8711 9.48633 84.8711 8.69336C84.8711 7.33529 85.3952 6.28711 86.4434 5.54883C87.5007 4.80143 88.9772 4.42773 90.873 4.42773C92.7689 4.42773 94.5781 4.82878 96.3008 5.63086L95.043 8.63867C94.1589 8.26497 93.3978 7.98698 92.7598 7.80469C92.1309 7.61328 91.4974 7.51758 90.8594 7.51758C89.6289 7.51758 89.0137 7.85026 89.0137 8.51562C89.0137 8.88932 89.2142 9.21745 89.6152 9.5C90.0163 9.77344 90.8457 10.1608 92.1035 10.6621C93.3704 11.1634 94.2819 11.6283 94.8379 12.0566C95.9225 12.877 96.4648 14.0436 96.4648 15.5566C96.4648 17.0697 95.918 18.2363 94.8242 19.0566C93.7305 19.8678 92.1491 20.2734 90.0801 20.2734C88.0111 20.2734 86.2793 19.9772 84.8848 19.3848V15.9395C85.6686 16.304 86.5436 16.6094 87.5098 16.8555C88.485 17.1016 89.3418 17.2246 90.0801 17.2246ZM104.34 4.71484H108.619V7.8457H104.34V15.2148C104.34 15.7891 104.499 16.222 104.818 16.5137C105.146 16.8053 105.63 16.9512 106.268 16.9512C106.906 16.9512 107.744 16.7917 108.783 16.4727V19.5762C107.744 20.041 106.432 20.2734 104.846 20.2734C103.269 20.2734 102.093 19.8587 101.318 19.0293C100.553 18.1908 100.17 16.9193 100.17 15.2148V7.8457H98.1738V6.08203L100.471 4.6875L101.674 1.46094H104.34V4.71484Z" fill="#040937"/>
</svg>
